STARTFONT 2.1
FONT -FontForge-Bitstream Vera Sans Mono-Book-R-Normal-SansMono--12-120-75-75-P-69-FontSpecific-0
SIZE 12 75 75
FONTBOUNDINGBOX 7 13 0 -4
COMMENT "Generated by fontforge, http://fontforge.sourceforge.net"
STARTPROPERTIES 28
FONT_NAME "BitstreamVeraSansMono-Roman"
FONT_ASCENT 9
FONT_DESCENT 3
UNDERLINE_POSITION -213
UNDERLINE_THICKNESS 141
QUAD_WIDTH 12
X_HEIGHT 8
CAP_HEIGHT 6
DEFAULT_CHAR -1
FONTNAME_REGISTRY ""
FAMILY_NAME "Bitstream Vera Sans Mono"
FOUNDRY "FontForge"
WEIGHT_NAME "Book"
SETWIDTH_NAME "Normal"
SLANT "R"
ADD_STYLE_NAME "SansMono-"
PIXEL_SIZE 12
POINT_SIZE 120
RESOLUTION_X 75
RESOLUTION_Y 75
RESOLUTION 75
SPACING "P"
AVERAGE_WIDTH 69
CHARSET_REGISTRY "FontSpecific"
CHARSET_ENCODING "0"
CHARSET_COLLECTIONS "ASCII ISO8859-9 FontSpecific"
FULL_NAME "Bitstream Vera Sans Mono"
COPYRIGHT "Copyright (c) 2003 by Bitstream, Inc. All Rights Reserved."
ENDPROPERTIES
CHARS 269
STARTCHAR .null
ENCODING -1
SWIDTH 0 0
DWIDTH 0 0
BBX 1 1 0 0
BITMAP
00
ENDCHAR
STARTCHAR nonmarkingreturn
ENCODING -1
SWIDTH 602 0
DWIDTH 7 0
BBX 1 1 0 0
BITMAP
00
ENDCHAR
STARTCHAR space
ENCODING -1
SWIDTH 602 0
DWIDTH 7 0
BBX 1 1 0 0
BITMAP
00
ENDCHAR
STARTCHAR exclam
ENCODING -1
SWIDTH 602 0
DWIDTH 7 0
BBX 1 9 3 0
BITMAP
80
80
80
80
80
80
00
80
80
ENDCHAR
STARTCHAR quotedbl
ENCODING -1
SWIDTH 602 0
DWIDTH 7 0
BBX 3 3 2 6
BITMAP
A0
A0
A0
ENDCHAR
STARTCHAR numbersign
ENCODING -1
SWIDTH 602 0
DWIDTH 7 0
BBX 7 9 0 0
BITMAP
14
14
7E
24
28
FE
48
48
50
ENDCHAR
STARTCHAR dollar
ENCODING -1
SWIDTH 602 0
DWIDTH 7 0
BBX 6 12 1 -2
BITMAP
20
20
78
A0
A0
70
28
2C
28
F8
20
20
ENDCHAR
STARTCHAR percent
ENCODING -1
SWIDTH 602 0
DWIDTH 7 0
BBX 7 9 0 0
BITMAP
60
90
90
66
18
6C
12
12
0C
ENDCHAR
STARTCHAR ampersand
ENCODING -1
SWIDTH 602 0
DWIDTH 7 0
BBX 7 9 0 0
BITMAP
38
40
20
20
52
9A
8A
44
3A
ENDCHAR
STARTCHAR quotesingle
ENCODING -1
SWIDTH 602 0
DWIDTH 7 0
BBX 1 3 3 6
BITMAP
80
80
80
ENDCHAR
STARTCHAR parenleft
ENCODING -1
SWIDTH 602 0
DWIDTH 7 0
BBX 2 12 3 -2
BITMAP
40
40
80
80
80
80
80
80
80
80
40
40
ENDCHAR
STARTCHAR parenright
ENCODING -1
SWIDTH 602 0
DWIDTH 7 0
BBX 3 12 2 -2
BITMAP
80
40
40
40
60
20
20
60
40
40
40
80
ENDCHAR
STARTCHAR asterisk
ENCODING -1
SWIDTH 602 0
DWIDTH 7 0
BBX 5 6 1 3
BITMAP
20
A8
70
F8
20
20
ENDCHAR
STARTCHAR plus
ENCODING -1
SWIDTH 602 0
DWIDTH 7 0
BBX 6 6 1 1
BITMAP
20
20
FC
FC
20
20
ENDCHAR
STARTCHAR comma
ENCODING -1
SWIDTH 602 0
DWIDTH 7 0
BBX 2 4 2 -2
BITMAP
40
40
40
80
ENDCHAR
STARTCHAR hyphen
ENCODING -1
SWIDTH 602 0
DWIDTH 7 0
BBX 3 1 2 3
BITMAP
E0
ENDCHAR
STARTCHAR period
ENCODING -1
SWIDTH 602 0
DWIDTH 7 0
BBX 1 2 3 0
BITMAP
80
80
ENDCHAR
STARTCHAR slash
ENCODING -1
SWIDTH 602 0
DWIDTH 7 0
BBX 5 10 1 -1
BITMAP
08
18
10
10
20
20
40
40
80
80
ENDCHAR
STARTCHAR zero
ENCODING -1
SWIDTH 602 0
DWIDTH 7 0
BBX 5 9 1 0
BITMAP
78
88
88
88
A8
88
88
C8
70
ENDCHAR
STARTCHAR one
ENCODING -1
SWIDTH 602 0
DWIDTH 7 0
BBX 5 9 1 0
BITMAP
F0
30
30
30
30
30
30
30
78
ENDCHAR
STARTCHAR two
ENCODING -1
SWIDTH 602 0
DWIDTH 7 0
BBX 5 9 1 0
BITMAP
F0
08
08
08
10
20
60
C0
F8
ENDCHAR
STARTCHAR three
ENCODING -1
SWIDTH 602 0
DWIDTH 7 0
BBX 5 9 1 0
BITMAP
F8
08
08
78
78
08
08
08
F0
ENDCHAR
STARTCHAR four
ENCODING -1
SWIDTH 602 0
DWIDTH 7 0
BBX 6 9 1 0
BITMAP
10
30
50
50
90
90
FC
10
10
ENDCHAR
STARTCHAR five
ENCODING -1
SWIDTH 602 0
DWIDTH 7 0
BBX 5 9 1 0
BITMAP
F8
80
80
F0
08
08
08
18
F0
ENDCHAR
STARTCHAR six
ENCODING -1
SWIDTH 602 0
DWIDTH 7 0
BBX 5 9 1 0
BITMAP
78
C0
80
F8
88
88
88
C8
70
ENDCHAR
STARTCHAR seven
ENCODING -1
SWIDTH 602 0
DWIDTH 7 0
BBX 5 9 1 0
BITMAP
F8
08
18
10
10
20
20
20
40
ENDCHAR
STARTCHAR eight
ENCODING -1
SWIDTH 602 0
DWIDTH 7 0
BBX 5 9 1 0
BITMAP
F8
88
88
78
78
88
88
88
70
ENDCHAR
STARTCHAR nine
ENCODING -1
SWIDTH 602 0
DWIDTH 7 0
BBX 5 9 1 0
BITMAP
F0
88
88
88
D8
68
08
18
F0
ENDCHAR
STARTCHAR colon
ENCODING -1
SWIDTH 602 0
DWIDTH 7 0
BBX 1 7 3 0
BITMAP
80
80
00
00
00
80
80
ENDCHAR
STARTCHAR semicolon
ENCODING -1
SWIDTH 602 0
DWIDTH 7 0
BBX 2 9 2 -2
BITMAP
40
40
00
00
00
40
40
40
80
ENDCHAR
STARTCHAR less
ENCODING -1
SWIDTH 602 0
DWIDTH 7 0
BBX 6 6 1 1
BITMAP
0C
30
C0
C0
38
0C
ENDCHAR
STARTCHAR equal
ENCODING -1
SWIDTH 602 0
DWIDTH 7 0
BBX 6 4 1 2
BITMAP
FC
00
00
FC
ENDCHAR
STARTCHAR greater
ENCODING -1
SWIDTH 602 0
DWIDTH 7 0
BBX 6 6 1 1
BITMAP
80
60
1C
1C
60
80
ENDCHAR
STARTCHAR question
ENCODING -1
SWIDTH 602 0
DWIDTH 7 0
BBX 5 9 1 0
BITMAP
F8
08
08
10
20
20
20
00
20
ENDCHAR
STARTCHAR at
ENCODING -1
SWIDTH 602 0
DWIDTH 7 0
BBX 7 11 0 -2
BITMAP
18
64
42
9E
92
A2
92
9E
40
60
1C
ENDCHAR
STARTCHAR A
ENCODING -1
SWIDTH 602 0
DWIDTH 7 0
BBX 7 9 0 0
BITMAP
18
28
28
28
24
44
7C
46
C2
ENDCHAR
STARTCHAR B
ENCODING -1
SWIDTH 602 0
DWIDTH 7 0
BBX 6 9 1 0
BITMAP
F8
88
88
F8
F8
8C
8C
88
F8
ENDCHAR
STARTCHAR C
ENCODING -1
SWIDTH 602 0
DWIDTH 7 0
BBX 5 9 1 0
BITMAP
78
C0
80
80
80
80
80
40
38
ENDCHAR
STARTCHAR D
ENCODING -1
SWIDTH 602 0
DWIDTH 7 0
BBX 5 9 1 0
BITMAP
F0
88
88
88
88
88
88
98
F0
ENDCHAR
STARTCHAR E
ENCODING -1
SWIDTH 602 0
DWIDTH 7 0
BBX 5 9 1 0
BITMAP
F8
80
80
F8
F8
80
80
80
F8
ENDCHAR
STARTCHAR F
ENCODING -1
SWIDTH 602 0
DWIDTH 7 0
BBX 6 9 1 0
BITMAP
FC
C0
C0
F8
F8
C0
C0
C0
C0
ENDCHAR
STARTCHAR G
ENCODING -1
SWIDTH 602 0
DWIDTH 7 0
BBX 5 9 1 0
BITMAP
78
80
80
80
98
88
88
C8
78
ENDCHAR
STARTCHAR H
ENCODING -1
SWIDTH 602 0
DWIDTH 7 0
BBX 5 9 1 0
BITMAP
88
88
88
F8
F8
88
88
88
88
ENDCHAR
STARTCHAR I
ENCODING -1
SWIDTH 602 0
DWIDTH 7 0
BBX 5 9 1 0
BITMAP
F8
20
20
20
20
20
20
20
F8
ENDCHAR
STARTCHAR J
ENCODING -1
SWIDTH 602 0
DWIDTH 7 0
BBX 5 9 1 0
BITMAP
78
18
18
18
18
18
18
10
F0
ENDCHAR
STARTCHAR K
ENCODING -1
SWIDTH 602 0
DWIDTH 7 0
BBX 6 9 1 0
BITMAP
88
90
B0
E0
E0
90
98
88
8C
ENDCHAR
STARTCHAR L
ENCODING -1
SWIDTH 602 0
DWIDTH 7 0
BBX 6 9 1 0
BITMAP
80
80
80
80
80
80
80
80
FC
ENDCHAR
STARTCHAR M
ENCODING -1
SWIDTH 602 0
DWIDTH 7 0
BBX 7 9 0 0
BITMAP
C6
EA
EA
EA
D2
D2
C2
C2
C2
ENDCHAR
STARTCHAR N
ENCODING -1
SWIDTH 602 0
DWIDTH 7 0
BBX 5 9 1 0
BITMAP
C8
C8
C8
A8
A8
98
98
98
88
ENDCHAR
STARTCHAR O
ENCODING -1
SWIDTH 602 0
DWIDTH 7 0
BBX 6 9 1 0
BITMAP
78
88
88
8C
8C
88
88
C8
70
ENDCHAR
STARTCHAR P
ENCODING -1
SWIDTH 602 0
DWIDTH 7 0
BBX 6 9 1 0
BITMAP
F8
8C
8C
8C
F8
80
80
80
80
ENDCHAR
STARTCHAR Q
ENCODING -1
SWIDTH 602 0
DWIDTH 7 0
BBX 6 11 1 -2
BITMAP
78
88
88
88
8C
88
88
88
78
10
08
ENDCHAR
STARTCHAR R
ENCODING -1
SWIDTH 602 0
DWIDTH 7 0
BBX 6 9 1 0
BITMAP
F8
88
88
88
F0
98
88
8C
84
ENDCHAR
STARTCHAR S
ENCODING -1
SWIDTH 602 0
DWIDTH 7 0
BBX 5 9 1 0
BITMAP
78
80
80
C0
78
08
08
88
F0
ENDCHAR
STARTCHAR T
ENCODING -1
SWIDTH 602 0
DWIDTH 7 0
BBX 7 9 0 0
BITMAP
FE
10
10
10
10
10
10
10
10
ENDCHAR
STARTCHAR U
ENCODING -1
SWIDTH 602 0
DWIDTH 7 0
BBX 5 9 1 0
BITMAP
88
88
88
88
88
88
88
88
70
ENDCHAR
STARTCHAR V
ENCODING -1
SWIDTH 602 0
DWIDTH 7 0
BBX 6 9 1 0
BITMAP
8C
88
88
C8
58
50
50
70
20
ENDCHAR
STARTCHAR W
ENCODING -1
SWIDTH 602 0
DWIDTH 7 0
BBX 7 9 0 0
BITMAP
82
82
92
52
6A
6C
6C
6C
64
ENDCHAR
STARTCHAR X
ENCODING -1
SWIDTH 602 0
DWIDTH 7 0
BBX 7 9 0 0
BITMAP
44
24
28
18
18
28
24
44
C2
ENDCHAR
STARTCHAR Y
ENCODING -1
SWIDTH 602 0
DWIDTH 7 0
BBX 6 9 1 0
BITMAP
8C
88
50
50
20
20
20
20
20
ENDCHAR
STARTCHAR Z
ENCODING -1
SWIDTH 602 0
DWIDTH 7 0
BBX 6 9 1 0
BITMAP
FC
08
18
10
20
60
40
80
FC
ENDCHAR
STARTCHAR bracketleft
ENCODING -1
SWIDTH 602 0
DWIDTH 7 0
BBX 2 12 3 -2
BITMAP
C0
80
80
80
80
80
80
80
80
80
80
C0
ENDCHAR
STARTCHAR backslash
ENCODING -1
SWIDTH 602 0
DWIDTH 7 0
BBX 5 10 1 -1
BITMAP
80
C0
40
40
20
20
10
10
18
08
ENDCHAR
STARTCHAR bracketright
ENCODING -1
SWIDTH 602 0
DWIDTH 7 0
BBX 3 12 2 -2
BITMAP
E0
60
60
60
60
60
60
60
60
60
60
E0
ENDCHAR
STARTCHAR asciicircum
ENCODING -1
SWIDTH 602 0
DWIDTH 7 0
BBX 5 3 1 6
BITMAP
70
58
88
ENDCHAR
STARTCHAR underscore
ENCODING -1
SWIDTH 602 0
DWIDTH 7 0
BBX 4 1 1 -4
BITMAP
F0
ENDCHAR
STARTCHAR grave
ENCODING -1
SWIDTH 602 0
DWIDTH 7 0
BBX 2 2 2 8
BITMAP
80
40
ENDCHAR
STARTCHAR a
ENCODING -1
SWIDTH 602 0
DWIDTH 7 0
BBX 5 7 1 0
BITMAP
F0
08
08
F8
88
88
F8
ENDCHAR
STARTCHAR b
ENCODING -1
SWIDTH 602 0
DWIDTH 7 0
BBX 5 10 1 0
BITMAP
80
80
80
B0
C8
88
88
88
C8
B0
ENDCHAR
STARTCHAR c
ENCODING -1
SWIDTH 602 0
DWIDTH 7 0
BBX 5 7 1 0
BITMAP
38
40
80
80
80
40
38
ENDCHAR
STARTCHAR d
ENCODING -1
SWIDTH 602 0
DWIDTH 7 0
BBX 5 10 1 0
BITMAP
08
08
08
78
88
88
88
88
88
78
ENDCHAR
STARTCHAR e
ENCODING -1
SWIDTH 602 0
DWIDTH 7 0
BBX 6 7 1 0
BITMAP
70
88
88
FC
80
80
78
ENDCHAR
STARTCHAR f
ENCODING -1
SWIDTH 602 0
DWIDTH 7 0
BBX 5 10 1 0
BITMAP
18
20
20
F8
20
20
20
20
20
20
ENDCHAR
STARTCHAR g
ENCODING -1
SWIDTH 602 0
DWIDTH 7 0
BBX 5 10 1 -3
BITMAP
78
88
88
88
88
88
78
08
98
70
ENDCHAR
STARTCHAR h
ENCODING -1
SWIDTH 602 0
DWIDTH 7 0
BBX 5 10 1 0
BITMAP
80
80
80
B8
C8
88
88
88
88
88
ENDCHAR
STARTCHAR i
ENCODING -1
SWIDTH 602 0
DWIDTH 7 0
BBX 5 10 1 0
BITMAP
20
20
00
E0
20
20
20
20
20
F8
ENDCHAR
STARTCHAR j
ENCODING -1
SWIDTH 602 0
DWIDTH 7 0
BBX 4 13 1 -3
BITMAP
30
30
00
70
10
10
10
10
10
10
10
20
C0
ENDCHAR
STARTCHAR k
ENCODING -1
SWIDTH 602 0
DWIDTH 7 0
BBX 6 10 1 0
BITMAP
C0
C0
C0
C8
D0
E0
F0
D0
C8
CC
ENDCHAR
STARTCHAR l
ENCODING -1
SWIDTH 602 0
DWIDTH 7 0
BBX 5 10 1 0
BITMAP
E0
20
20
20
20
20
20
20
20
38
ENDCHAR
STARTCHAR m
ENCODING -1
SWIDTH 602 0
DWIDTH 7 0
BBX 6 7 1 0
BITMAP
F8
A4
A4
A4
A4
A4
A4
ENDCHAR
STARTCHAR n
ENCODING -1
SWIDTH 602 0
DWIDTH 7 0
BBX 5 7 1 0
BITMAP
B8
C8
88
88
88
88
88
ENDCHAR
STARTCHAR o
ENCODING -1
SWIDTH 602 0
DWIDTH 7 0
BBX 5 7 1 0
BITMAP
70
88
88
88
88
88
70
ENDCHAR
STARTCHAR p
ENCODING -1
SWIDTH 602 0
DWIDTH 7 0
BBX 5 10 1 -3
BITMAP
B0
C8
88
88
88
C8
B0
80
80
80
ENDCHAR
STARTCHAR q
ENCODING -1
SWIDTH 602 0
DWIDTH 7 0
BBX 5 10 1 -3
BITMAP
78
88
88
88
88
88
78
08
08
08
ENDCHAR
STARTCHAR r
ENCODING -1
SWIDTH 602 0
DWIDTH 7 0
BBX 5 7 2 0
BITMAP
B8
C0
80
80
80
80
80
ENDCHAR
STARTCHAR s
ENCODING -1
SWIDTH 602 0
DWIDTH 7 0
BBX 5 7 1 0
BITMAP
78
80
C0
70
08
08
F0
ENDCHAR
STARTCHAR t
ENCODING -1
SWIDTH 602 0
DWIDTH 7 0
BBX 5 9 1 0
BITMAP
20
20
F8
20
20
20
20
20
38
ENDCHAR
STARTCHAR u
ENCODING -1
SWIDTH 602 0
DWIDTH 7 0
BBX 5 7 1 0
BITMAP
88
88
88
88
88
88
78
ENDCHAR
STARTCHAR v
ENCODING -1
SWIDTH 602 0
DWIDTH 7 0
BBX 5 7 1 0
BITMAP
88
88
C8
50
50
50
20
ENDCHAR
STARTCHAR w
ENCODING -1
SWIDTH 602 0
DWIDTH 7 0
BBX 7 7 0 0
BITMAP
82
82
52
54
6C
6C
64
ENDCHAR
STARTCHAR x
ENCODING -1
SWIDTH 602 0
DWIDTH 7 0
BBX 5 7 1 0
BITMAP
88
50
70
20
50
48
88
ENDCHAR
STARTCHAR y
ENCODING -1
SWIDTH 602 0
DWIDTH 7 0
BBX 6 10 1 -3
BITMAP
8C
88
48
50
50
30
20
20
60
C0
ENDCHAR
STARTCHAR z
ENCODING -1
SWIDTH 602 0
DWIDTH 7 0
BBX 5 7 1 0
BITMAP
F8
08
10
20
60
40
F8
ENDCHAR
STARTCHAR braceleft
ENCODING -1
SWIDTH 602 0
DWIDTH 7 0
BBX 5 12 1 -2
BITMAP
18
20
20
20
20
20
E0
20
20
20
20
38
ENDCHAR
STARTCHAR bar
ENCODING -1
SWIDTH 602 0
DWIDTH 7 0
BBX 1 13 3 -3
BITMAP
80
80
80
80
80
80
80
80
80
80
80
80
80
ENDCHAR
STARTCHAR braceright
ENCODING -1
SWIDTH 602 0
DWIDTH 7 0
BBX 5 12 1 -2
BITMAP
C0
20
20
20
20
30
18
20
20
20
20
E0
ENDCHAR
STARTCHAR asciitilde
ENCODING -1
SWIDTH 602 0
DWIDTH 7 0
BBX 6 2 1 3
BITMAP
E4
18
ENDCHAR
STARTCHAR nonbreakingspace
ENCODING -1
SWIDTH 602 0
DWIDTH 7 0
BBX 1 1 0 0
BITMAP
00
ENDCHAR
STARTCHAR exclamdown
ENCODING -1
SWIDTH 602 0
DWIDTH 7 0
BBX 1 9 3 0
BITMAP
80
00
00
80
80
80
80
80
80
ENDCHAR
STARTCHAR cent
ENCODING -1
SWIDTH 602 0
DWIDTH 7 0
BBX 5 11 1 -2
BITMAP
10
10
38
50
D0
90
D0
50
38
10
10
ENDCHAR
STARTCHAR sterling
ENCODING -1
SWIDTH 602 0
DWIDTH 7 0
BBX 6 9 1 0
BITMAP
38
60
40
40
F8
40
40
40
FC
ENDCHAR
STARTCHAR currency
ENCODING -1
SWIDTH 602 0
DWIDTH 7 0
BBX 5 6 1 1
BITMAP
80
78
48
48
78
80
ENDCHAR
STARTCHAR yen
ENCODING -1
SWIDTH 602 0
DWIDTH 7 0
BBX 6 9 1 0
BITMAP
8C
88
50
DC
20
FC
20
20
20
ENDCHAR
STARTCHAR brokenbar
ENCODING -1
SWIDTH 602 0
DWIDTH 7 0
BBX 1 11 3 -2
BITMAP
80
80
80
80
80
00
80
80
80
80
80
ENDCHAR
STARTCHAR section
ENCODING -1
SWIDTH 602 0
DWIDTH 7 0
BBX 5 10 1 -1
BITMAP
70
40
40
70
88
C8
38
10
08
70
ENDCHAR
STARTCHAR dieresis
ENCODING -1
SWIDTH 602 0
DWIDTH 7 0
BBX 3 2 2 8
BITMAP
A0
A0
ENDCHAR
STARTCHAR copyright
ENCODING -1
SWIDTH 602 0
DWIDTH 7 0
BBX 7 9 0 0
BITMAP
10
6C
BA
C2
C2
A2
9A
6C
10
ENDCHAR
STARTCHAR ordfeminine
ENCODING -1
SWIDTH 602 0
DWIDTH 7 0
BBX 4 6 2 3
BITMAP
E0
10
F0
B0
D0
F0
ENDCHAR
STARTCHAR guillemotleft
ENCODING -1
SWIDTH 602 0
DWIDTH 7 0
BBX 5 5 1 1
BITMAP
48
90
B0
58
08
ENDCHAR
STARTCHAR logicalnot
ENCODING -1
SWIDTH 602 0
DWIDTH 7 0
BBX 6 3 1 2
BITMAP
FC
04
04
ENDCHAR
STARTCHAR sfthyphen
ENCODING -1
SWIDTH 602 0
DWIDTH 7 0
BBX 3 1 2 3
BITMAP
E0
ENDCHAR
STARTCHAR registered
ENCODING -1
SWIDTH 602 0
DWIDTH 7 0
BBX 7 9 0 0
BITMAP
10
6C
BA
AA
B2
AA
82
6C
10
ENDCHAR
STARTCHAR macron
ENCODING -1
SWIDTH 602 0
DWIDTH 7 0
BBX 3 1 2 9
BITMAP
E0
ENDCHAR
STARTCHAR degree
ENCODING -1
SWIDTH 602 0
DWIDTH 7 0
BBX 3 4 2 5
BITMAP
E0
A0
A0
40
ENDCHAR
STARTCHAR plusminus
ENCODING -1
SWIDTH 602 0
DWIDTH 7 0
BBX 6 7 1 0
BITMAP
20
20
FC
20
20
00
FC
ENDCHAR
STARTCHAR twosuperior
ENCODING -1
SWIDTH 602 0
DWIDTH 7 0
BBX 3 5 2 4
BITMAP
60
20
40
40
E0
ENDCHAR
STARTCHAR threesuperior
ENCODING -1
SWIDTH 602 0
DWIDTH 7 0
BBX 3 5 2 4
BITMAP
60
20
60
20
E0
ENDCHAR
STARTCHAR acute
ENCODING -1
SWIDTH 602 0
DWIDTH 7 0
BBX 2 2 3 8
BITMAP
40
80
ENDCHAR
STARTCHAR mu
ENCODING -1
SWIDTH 602 0
DWIDTH 7 0
BBX 6 10 1 -3
BITMAP
88
88
88
88
88
C8
FC
80
80
80
ENDCHAR
STARTCHAR paragraph
ENCODING -1
SWIDTH 602 0
DWIDTH 7 0
BBX 5 10 1 -1
BITMAP
F8
E8
E8
E8
68
28
28
28
28
28
ENDCHAR
STARTCHAR periodcentered
ENCODING -1
SWIDTH 602 0
DWIDTH 7 0
BBX 1 2 3 3
BITMAP
80
80
ENDCHAR
STARTCHAR cedilla
ENCODING -1
SWIDTH 602 0
DWIDTH 7 0
BBX 2 2 3 -3
BITMAP
40
80
ENDCHAR
STARTCHAR onesuperior
ENCODING -1
SWIDTH 602 0
DWIDTH 7 0
BBX 3 5 2 4
BITMAP
C0
40
40
40
E0
ENDCHAR
STARTCHAR ordmasculine
ENCODING -1
SWIDTH 602 0
DWIDTH 7 0
BBX 5 6 1 3
BITMAP
70
88
88
48
30
78
ENDCHAR
STARTCHAR guillemotright
ENCODING -1
SWIDTH 602 0
DWIDTH 7 0
BBX 6 5 1 1
BITMAP
90
48
2C
50
80
ENDCHAR
STARTCHAR onequarter
ENCODING -1
SWIDTH 602 0
DWIDTH 7 0
BBX 6 12 0 -2
BITMAP
E0
20
20
20
70
1C
E4
0C
14
14
1C
04
ENDCHAR
STARTCHAR onehalf
ENCODING -1
SWIDTH 602 0
DWIDTH 7 0
BBX 6 12 0 -2
BITMAP
E0
20
20
20
70
1C
E8
04
04
08
10
1C
ENDCHAR
STARTCHAR threequarters
ENCODING -1
SWIDTH 602 0
DWIDTH 7 0
BBX 6 12 0 -2
BITMAP
30
10
10
10
70
1C
E4
0C
14
14
1C
04
ENDCHAR
STARTCHAR questiondown
ENCODING -1
SWIDTH 602 0
DWIDTH 7 0
BBX 5 9 1 0
BITMAP
20
00
20
20
20
40
80
C8
70
ENDCHAR
STARTCHAR Agrave
ENCODING -1
SWIDTH 602 0
DWIDTH 7 0
BBX 7 12 0 0
BITMAP
10
10
00
18
28
28
28
24
44
7C
46
C2
ENDCHAR
STARTCHAR Aacute
ENCODING -1
SWIDTH 602 0
DWIDTH 7 0
BBX 7 12 0 0
BITMAP
08
10
00
18
28
28
28
24
44
7C
46
C2
ENDCHAR
STARTCHAR Acircumflex
ENCODING -1
SWIDTH 602 0
DWIDTH 7 0
BBX 7 12 0 0
BITMAP
10
28
00
18
28
28
28
24
44
7C
46
C2
ENDCHAR
STARTCHAR Atilde
ENCODING -1
SWIDTH 602 0
DWIDTH 7 0
BBX 7 12 0 0
BITMAP
34
08
00
18
28
28
28
24
44
7C
46
C2
ENDCHAR
STARTCHAR Adieresis
ENCODING -1
SWIDTH 602 0
DWIDTH 7 0
BBX 7 12 0 0
BITMAP
28
28
00
18
28
28
28
24
44
7C
46
C2
ENDCHAR
STARTCHAR Aring
ENCODING -1
SWIDTH 602 0
DWIDTH 7 0
BBX 7 12 0 0
BITMAP
18
28
28
18
28
28
28
24
44
7C
46
C2
ENDCHAR
STARTCHAR AE
ENCODING -1
SWIDTH 602 0
DWIDTH 7 0
BBX 7 9 0 0
BITMAP
3E
28
28
4E
4E
48
78
88
8E
ENDCHAR
STARTCHAR Ccedilla
ENCODING -1
SWIDTH 602 0
DWIDTH 7 0
BBX 5 11 1 -2
BITMAP
78
C0
80
80
80
80
80
40
38
10
10
ENDCHAR
STARTCHAR Egrave
ENCODING -1
SWIDTH 602 0
DWIDTH 7 0
BBX 5 12 1 0
BITMAP
20
20
00
F8
80
80
F8
F8
80
80
80
F8
ENDCHAR
STARTCHAR Eacute
ENCODING -1
SWIDTH 602 0
DWIDTH 7 0
BBX 5 12 1 0
BITMAP
10
20
00
F8
80
80
F8
F8
80
80
80
F8
ENDCHAR
STARTCHAR Ecircumflex
ENCODING -1
SWIDTH 602 0
DWIDTH 7 0
BBX 5 12 1 0
BITMAP
30
50
00
F8
80
80
F8
F8
80
80
80
F8
ENDCHAR
STARTCHAR Edieresis
ENCODING -1
SWIDTH 602 0
DWIDTH 7 0
BBX 5 12 1 0
BITMAP
50
50
00
F8
80
80
F8
F8
80
80
80
F8
ENDCHAR
STARTCHAR Igrave
ENCODING -1
SWIDTH 602 0
DWIDTH 7 0
BBX 5 12 1 0
BITMAP
20
20
00
F8
20
20
20
20
20
20
20
F8
ENDCHAR
STARTCHAR Iacute
ENCODING -1
SWIDTH 602 0
DWIDTH 7 0
BBX 5 12 1 0
BITMAP
10
20
00
F8
20
20
20
20
20
20
20
F8
ENDCHAR
STARTCHAR Icircumflex
ENCODING -1
SWIDTH 602 0
DWIDTH 7 0
BBX 5 12 1 0
BITMAP
20
50
00
F8
20
20
20
20
20
20
20
F8
ENDCHAR
STARTCHAR Idieresis
ENCODING -1
SWIDTH 602 0
DWIDTH 7 0
BBX 5 12 1 0
BITMAP
50
50
00
F8
20
20
20
20
20
20
20
F8
ENDCHAR
STARTCHAR Eth
ENCODING -1
SWIDTH 602 0
DWIDTH 7 0
BBX 6 9 0 0
BITMAP
78
44
44
44
F4
44
44
4C
78
ENDCHAR
STARTCHAR Ntilde
ENCODING -1
SWIDTH 602 0
DWIDTH 7 0
BBX 5 12 1 0
BITMAP
60
10
00
C8
C8
C8
A8
A8
98
98
98
88
ENDCHAR
STARTCHAR Ograve
ENCODING -1
SWIDTH 602 0
DWIDTH 7 0
BBX 6 12 1 0
BITMAP
40
20
00
78
88
88
8C
8C
88
88
C8
70
ENDCHAR
STARTCHAR Oacute
ENCODING -1
SWIDTH 602 0
DWIDTH 7 0
BBX 6 12 1 0
BITMAP
10
20
00
78
88
88
8C
8C
88
88
C8
70
ENDCHAR
STARTCHAR Ocircumflex
ENCODING -1
SWIDTH 602 0
DWIDTH 7 0
BBX 6 12 1 0
BITMAP
20
50
00
78
88
88
8C
8C
88
88
C8
70
ENDCHAR
STARTCHAR Otilde
ENCODING -1
SWIDTH 602 0
DWIDTH 7 0
BBX 6 12 1 0
BITMAP
48
30
00
78
88
88
8C
8C
88
88
C8
70
ENDCHAR
STARTCHAR Odieresis
ENCODING -1
SWIDTH 602 0
DWIDTH 7 0
BBX 6 12 1 0
BITMAP
50
50
00
78
88
88
8C
8C
88
88
C8
70
ENDCHAR
STARTCHAR multiply
ENCODING -1
SWIDTH 602 0
DWIDTH 7 0
BBX 5 6 1 1
BITMAP
88
58
70
70
58
88
ENDCHAR
STARTCHAR Oslash
ENCODING -1
SWIDTH 602 0
DWIDTH 7 0
BBX 7 10 0 0
BITMAP
02
3E
44
4C
4E
56
64
64
44
B8
ENDCHAR
STARTCHAR Ugrave
ENCODING -1
SWIDTH 602 0
DWIDTH 7 0
BBX 5 12 1 0
BITMAP
60
20
00
88
88
88
88
88
88
88
88
70
ENDCHAR
STARTCHAR Uacute
ENCODING -1
SWIDTH 602 0
DWIDTH 7 0
BBX 5 12 1 0
BITMAP
10
20
00
88
88
88
88
88
88
88
88
70
ENDCHAR
STARTCHAR Ucircumflex
ENCODING -1
SWIDTH 602 0
DWIDTH 7 0
BBX 5 12 1 0
BITMAP
20
50
00
88
88
88
88
88
88
88
88
70
ENDCHAR
STARTCHAR Udieresis
ENCODING -1
SWIDTH 602 0
DWIDTH 7 0
BBX 5 12 1 0
BITMAP
50
50
00
88
88
88
88
88
88
88
88
70
ENDCHAR
STARTCHAR Yacute
ENCODING -1
SWIDTH 602 0
DWIDTH 7 0
BBX 6 12 1 0
BITMAP
10
20
00
8C
88
50
50
20
20
20
20
20
ENDCHAR
STARTCHAR Thorn
ENCODING -1
SWIDTH 602 0
DWIDTH 7 0
BBX 6 9 1 0
BITMAP
80
F0
88
84
84
8C
F0
80
80
ENDCHAR
STARTCHAR germandbls
ENCODING -1
SWIDTH 602 0
DWIDTH 7 0
BBX 6 10 1 0
BITMAP
70
D8
88
B0
A0
B0
98
8C
84
B8
ENDCHAR
STARTCHAR agrave
ENCODING -1
SWIDTH 602 0
DWIDTH 7 0
BBX 5 10 1 0
BITMAP
40
20
00
F0
08
08
F8
88
88
F8
ENDCHAR
STARTCHAR aacute
ENCODING -1
SWIDTH 602 0
DWIDTH 7 0
BBX 5 10 1 0
BITMAP
10
20
00
F0
08
08
F8
88
88
F8
ENDCHAR
STARTCHAR acircumflex
ENCODING -1
SWIDTH 602 0
DWIDTH 7 0
BBX 5 10 1 0
BITMAP
30
50
00
F0
08
08
F8
88
88
F8
ENDCHAR
STARTCHAR atilde
ENCODING -1
SWIDTH 602 0
DWIDTH 7 0
BBX 5 10 1 0
BITMAP
60
10
00
F0
08
08
F8
88
88
F8
ENDCHAR
STARTCHAR adieresis
ENCODING -1
SWIDTH 602 0
DWIDTH 7 0
BBX 5 10 1 0
BITMAP
50
50
00
F0
08
08
F8
88
88
F8
ENDCHAR
STARTCHAR aring
ENCODING -1
SWIDTH 602 0
DWIDTH 7 0
BBX 5 11 1 0
BITMAP
70
50
70
00
F0
08
08
F8
88
88
F8
ENDCHAR
STARTCHAR ae
ENCODING -1
SWIDTH 602 0
DWIDTH 7 0
BBX 7 7 0 0
BITMAP
7C
12
12
7E
90
90
6E
ENDCHAR
STARTCHAR ccedilla
ENCODING -1
SWIDTH 602 0
DWIDTH 7 0
BBX 5 9 1 -2
BITMAP
38
40
80
80
80
40
38
10
10
ENDCHAR
STARTCHAR egrave
ENCODING -1
SWIDTH 602 0
DWIDTH 7 0
BBX 6 10 1 0
BITMAP
40
20
00
70
88
88
FC
80
80
78
ENDCHAR
STARTCHAR eacute
ENCODING -1
SWIDTH 602 0
DWIDTH 7 0
BBX 6 10 1 0
BITMAP
10
20
00
70
88
88
FC
80
80
78
ENDCHAR
STARTCHAR ecircumflex
ENCODING -1
SWIDTH 602 0
DWIDTH 7 0
BBX 6 10 1 0
BITMAP
30
50
00
70
88
88
FC
80
80
78
ENDCHAR
STARTCHAR edieresis
ENCODING -1
SWIDTH 602 0
DWIDTH 7 0
BBX 6 10 1 0
BITMAP
50
50
00
70
88
88
FC
80
80
78
ENDCHAR
STARTCHAR igrave
ENCODING -1
SWIDTH 602 0
DWIDTH 7 0
BBX 5 10 1 0
BITMAP
40
20
00
E0
20
20
20
20
20
F8
ENDCHAR
STARTCHAR iacute
ENCODING -1
SWIDTH 602 0
DWIDTH 7 0
BBX 5 10 1 0
BITMAP
10
20
00
E0
20
20
20
20
20
F8
ENDCHAR
STARTCHAR icircumflex
ENCODING -1
SWIDTH 602 0
DWIDTH 7 0
BBX 5 10 1 0
BITMAP
30
50
00
E0
20
20
20
20
20
F8
ENDCHAR
STARTCHAR idieresis
ENCODING -1
SWIDTH 602 0
DWIDTH 7 0
BBX 5 10 1 0
BITMAP
50
50
00
E0
20
20
20
20
20
F8
ENDCHAR
STARTCHAR eth
ENCODING -1
SWIDTH 602 0
DWIDTH 7 0
BBX 5 10 1 0
BITMAP
40
30
50
78
C8
88
88
88
88
70
ENDCHAR
STARTCHAR ntilde
ENCODING -1
SWIDTH 602 0
DWIDTH 7 0
BBX 5 10 1 0
BITMAP
60
10
00
B8
C8
88
88
88
88
88
ENDCHAR
STARTCHAR ograve
ENCODING -1
SWIDTH 602 0
DWIDTH 7 0
BBX 5 10 1 0
BITMAP
40
20
00
70
88
88
88
88
88
70
ENDCHAR
STARTCHAR oacute
ENCODING -1
SWIDTH 602 0
DWIDTH 7 0
BBX 5 10 1 0
BITMAP
10
20
00
70
88
88
88
88
88
70
ENDCHAR
STARTCHAR ocircumflex
ENCODING -1
SWIDTH 602 0
DWIDTH 7 0
BBX 5 10 1 0
BITMAP
30
50
00
70
88
88
88
88
88
70
ENDCHAR
STARTCHAR otilde
ENCODING -1
SWIDTH 602 0
DWIDTH 7 0
BBX 5 10 1 0
BITMAP
60
10
00
70
88
88
88
88
88
70
ENDCHAR
STARTCHAR odieresis
ENCODING -1
SWIDTH 602 0
DWIDTH 7 0
BBX 5 10 1 0
BITMAP
50
50
00
70
88
88
88
88
88
70
ENDCHAR
STARTCHAR divide
ENCODING -1
SWIDTH 602 0
DWIDTH 7 0
BBX 6 6 1 1
BITMAP
20
20
00
FC
00
20
ENDCHAR
STARTCHAR oslash
ENCODING -1
SWIDTH 602 0
DWIDTH 7 0
BBX 6 7 1 0
BITMAP
74
88
98
A8
C8
88
F0
ENDCHAR
STARTCHAR ugrave
ENCODING -1
SWIDTH 602 0
DWIDTH 7 0
BBX 5 10 1 0
BITMAP
40
20
00
88
88
88
88
88
88
78
ENDCHAR
STARTCHAR uacute
ENCODING -1
SWIDTH 602 0
DWIDTH 7 0
BBX 5 10 1 0
BITMAP
10
20
00
88
88
88
88
88
88
78
ENDCHAR
STARTCHAR ucircumflex
ENCODING -1
SWIDTH 602 0
DWIDTH 7 0
BBX 5 10 1 0
BITMAP
30
50
00
88
88
88
88
88
88
78
ENDCHAR
STARTCHAR udieresis
ENCODING -1
SWIDTH 602 0
DWIDTH 7 0
BBX 5 10 1 0
BITMAP
50
50
00
88
88
88
88
88
88
78
ENDCHAR
STARTCHAR yacute
ENCODING -1
SWIDTH 602 0
DWIDTH 7 0
BBX 6 13 1 -3
BITMAP
10
20
00
8C
88
48
50
50
30
20
20
60
C0
ENDCHAR
STARTCHAR thorn
ENCODING -1
SWIDTH 602 0
DWIDTH 7 0
BBX 5 13 1 -3
BITMAP
80
80
80
B0
C8
88
88
88
C8
B0
80
80
80
ENDCHAR
STARTCHAR ydieresis
ENCODING -1
SWIDTH 602 0
DWIDTH 7 0
BBX 6 13 1 -3
BITMAP
50
50
00
8C
88
48
50
50
30
20
20
60
C0
ENDCHAR
STARTCHAR Cacute
ENCODING -1
SWIDTH 602 0
DWIDTH 7 0
BBX 5 12 1 0
BITMAP
10
10
00
78
C0
80
80
80
80
80
40
38
ENDCHAR
STARTCHAR cacute
ENCODING -1
SWIDTH 602 0
DWIDTH 7 0
BBX 5 10 1 0
BITMAP
18
10
00
38
40
80
80
80
40
38
ENDCHAR
STARTCHAR Ccaron
ENCODING -1
SWIDTH 602 0
DWIDTH 7 0
BBX 5 12 1 0
BITMAP
08
30
00
78
C0
80
80
80
80
80
40
38
ENDCHAR
STARTCHAR ccaron
ENCODING -1
SWIDTH 602 0
DWIDTH 7 0
BBX 5 10 1 0
BITMAP
28
30
00
38
40
80
80
80
40
38
ENDCHAR
STARTCHAR dcroat
ENCODING -1
SWIDTH 602 0
DWIDTH 7 0
BBX 6 10 1 0
BITMAP
08
3C
08
78
88
88
88
88
88
78
ENDCHAR
STARTCHAR Gbreve
ENCODING -1
SWIDTH 602 0
DWIDTH 7 0
BBX 5 12 1 0
BITMAP
40
70
00
78
80
80
80
98
88
88
C8
78
ENDCHAR
STARTCHAR gbreve
ENCODING -1
SWIDTH 602 0
DWIDTH 7 0
BBX 5 13 1 -3
BITMAP
50
30
00
78
88
88
88
88
88
78
08
98
70
ENDCHAR
STARTCHAR Idotaccent
ENCODING -1
SWIDTH 602 0
DWIDTH 7 0
BBX 5 12 1 0
BITMAP
20
20
00
F8
20
20
20
20
20
20
20
F8
ENDCHAR
STARTCHAR dotlessi
ENCODING -1
SWIDTH 602 0
DWIDTH 7 0
BBX 5 7 1 0
BITMAP
E0
20
20
20
20
20
F8
ENDCHAR
STARTCHAR Lslash
ENCODING -1
SWIDTH 602 0
DWIDTH 7 0
BBX 7 9 0 0
BITMAP
40
40
48
70
60
C0
40
40
7E
ENDCHAR
STARTCHAR lslash
ENCODING -1
SWIDTH 602 0
DWIDTH 7 0
BBX 5 10 1 0
BITMAP
E0
20
20
38
20
E0
A0
20
20
38
ENDCHAR
STARTCHAR OE
ENCODING -1
SWIDTH 602 0
DWIDTH 7 0
BBX 7 9 0 0
BITMAP
7E
48
48
CE
CE
C8
48
48
3E
ENDCHAR
STARTCHAR oe
ENCODING -1
SWIDTH 602 0
DWIDTH 7 0
BBX 7 7 0 0
BITMAP
7C
92
92
9E
90
90
7E
ENDCHAR
STARTCHAR Scedilla
ENCODING -1
SWIDTH 602 0
DWIDTH 7 0
BBX 5 12 1 -3
BITMAP
78
80
80
C0
78
08
08
88
F0
00
10
20
ENDCHAR
STARTCHAR scedilla
ENCODING -1
SWIDTH 602 0
DWIDTH 7 0
BBX 5 10 1 -3
BITMAP
78
80
C0
70
08
08
F0
00
10
20
ENDCHAR
STARTCHAR Scaron
ENCODING -1
SWIDTH 602 0
DWIDTH 7 0
BBX 5 12 1 0
BITMAP
50
20
00
78
80
80
C0
78
08
08
88
F0
ENDCHAR
STARTCHAR scaron
ENCODING -1
SWIDTH 602 0
DWIDTH 7 0
BBX 5 10 1 0
BITMAP
50
20
00
78
80
C0
70
08
08
F0
ENDCHAR
STARTCHAR Ydieresis
ENCODING -1
SWIDTH 602 0
DWIDTH 7 0
BBX 6 12 1 0
BITMAP
50
50
00
8C
88
50
50
20
20
20
20
20
ENDCHAR
STARTCHAR Zcaron
ENCODING -1
SWIDTH 602 0
DWIDTH 7 0
BBX 6 12 1 0
BITMAP
50
20
00
FC
08
18
10
20
60
40
80
FC
ENDCHAR
STARTCHAR zcaron
ENCODING -1
SWIDTH 602 0
DWIDTH 7 0
BBX 5 10 1 0
BITMAP
50
20
00
F8
08
10
20
60
40
F8
ENDCHAR
STARTCHAR florin
ENCODING -1
SWIDTH 602 0
DWIDTH 7 0
BBX 7 13 0 -3
BITMAP
06
08
08
08
10
3C
10
10
10
10
30
20
C0
ENDCHAR
STARTCHAR circumflex
ENCODING -1
SWIDTH 602 0
DWIDTH 7 0
BBX 3 2 2 8
BITMAP
60
A0
ENDCHAR
STARTCHAR caron
ENCODING -1
SWIDTH 602 0
DWIDTH 7 0
BBX 3 2 2 8
BITMAP
A0
40
ENDCHAR
STARTCHAR breve
ENCODING -1
SWIDTH 602 0
DWIDTH 7 0
BBX 3 2 2 8
BITMAP
A0
60
ENDCHAR
STARTCHAR dotaccent
ENCODING -1
SWIDTH 602 0
DWIDTH 7 0
BBX 1 2 3 8
BITMAP
80
80
ENDCHAR
STARTCHAR ring
ENCODING -1
SWIDTH 602 0
DWIDTH 7 0
BBX 3 3 2 8
BITMAP
E0
A0
E0
ENDCHAR
STARTCHAR ogonek
ENCODING -1
SWIDTH 602 0
DWIDTH 7 0
BBX 2 2 2 -3
BITMAP
80
40
ENDCHAR
STARTCHAR tilde
ENCODING -1
SWIDTH 602 0
DWIDTH 7 0
BBX 3 2 2 8
BITMAP
C0
20
ENDCHAR
STARTCHAR hungarumlaut
ENCODING -1
SWIDTH 602 0
DWIDTH 7 0
BBX 4 2 2 8
BITMAP
50
A0
ENDCHAR
STARTCHAR Omega
ENCODING -1
SWIDTH 602 0
DWIDTH 7 0
BBX 7 9 0 0
BITMAP
38
44
46
42
42
46
44
24
EE
ENDCHAR
STARTCHAR pi
ENCODING -1
SWIDTH 602 0
DWIDTH 7 0
BBX 7 7 0 0
BITMAP
FE
44
44
44
44
44
46
ENDCHAR
STARTCHAR endash
ENCODING -1
SWIDTH 602 0
DWIDTH 7 0
BBX 7 1 0 3
BITMAP
FE
ENDCHAR
STARTCHAR emdash
ENCODING -1
SWIDTH 602 0
DWIDTH 7 0
BBX 7 1 0 3
BITMAP
FE
ENDCHAR
STARTCHAR quoteleft
ENCODING -1
SWIDTH 602 0
DWIDTH 7 0
BBX 2 4 3 6
BITMAP
40
80
80
80
ENDCHAR
STARTCHAR quoteright
ENCODING -1
SWIDTH 602 0
DWIDTH 7 0
BBX 2 4 3 6
BITMAP
C0
C0
80
80
ENDCHAR
STARTCHAR quotesinglbase
ENCODING -1
SWIDTH 602 0
DWIDTH 7 0
BBX 2 4 2 -2
BITMAP
40
40
40
80
ENDCHAR
STARTCHAR quotedblleft
ENCODING -1
SWIDTH 602 0
DWIDTH 7 0
BBX 5 4 1 6
BITMAP
48
58
D0
D0
ENDCHAR
STARTCHAR quotedblright
ENCODING -1
SWIDTH 602 0
DWIDTH 7 0
BBX 5 4 1 6
BITMAP
58
58
58
90
ENDCHAR
STARTCHAR quotedblbase
ENCODING -1
SWIDTH 602 0
DWIDTH 7 0
BBX 5 4 1 -2
BITMAP
58
58
50
90
ENDCHAR
STARTCHAR dagger
ENCODING -1
SWIDTH 602 0
DWIDTH 7 0
BBX 5 10 1 -1
BITMAP
20
20
F8
20
20
20
20
20
20
20
ENDCHAR
STARTCHAR daggerdbl
ENCODING -1
SWIDTH 602 0
DWIDTH 7 0
BBX 5 10 1 -1
BITMAP
20
20
F8
20
20
20
20
F8
20
20
ENDCHAR
STARTCHAR bullet
ENCODING -1
SWIDTH 602 0
DWIDTH 7 0
BBX 3 4 2 3
BITMAP
40
E0
E0
E0
ENDCHAR
STARTCHAR ellipsis
ENCODING -1
SWIDTH 602 0
DWIDTH 7 0
BBX 7 2 0 0
BITMAP
D6
D6
ENDCHAR
STARTCHAR perthousand
ENCODING -1
SWIDTH 602 0
DWIDTH 7 0
BBX 7 9 0 0
BITMAP
60
A0
A0
5C
60
C4
AA
9A
6E
ENDCHAR
STARTCHAR guilsinglleft
ENCODING -1
SWIDTH 602 0
DWIDTH 7 0
BBX 3 5 2 1
BITMAP
20
40
80
40
20
ENDCHAR
STARTCHAR guilsinglright
ENCODING -1
SWIDTH 602 0
DWIDTH 7 0
BBX 3 6 2 1
BITMAP
80
C0
60
20
40
80
ENDCHAR
STARTCHAR Euro
ENCODING -1
SWIDTH 602 0
DWIDTH 7 0
BBX 6 9 0 0
BITMAP
3C
20
60
F8
40
F0
60
20
1C
ENDCHAR
STARTCHAR trademark
ENCODING -1
SWIDTH 602 0
DWIDTH 7 0
BBX 6 3 1 6
BITMAP
AC
B4
A4
ENDCHAR
STARTCHAR partialdiff
ENCODING -1
SWIDTH 602 0
DWIDTH 7 0
BBX 5 8 1 0
BITMAP
70
08
08
78
88
88
90
50
ENDCHAR
STARTCHAR Delta
ENCODING -1
SWIDTH 602 0
DWIDTH 7 0
BBX 7 9 0 0
BITMAP
10
18
28
28
64
44
44
C2
FE
ENDCHAR
STARTCHAR product
ENCODING -1
SWIDTH 602 0
DWIDTH 7 0
BBX 5 12 1 -3
BITMAP
F8
88
88
88
88
88
88
88
88
88
88
88
ENDCHAR
STARTCHAR summation
ENCODING -1
SWIDTH 602 0
DWIDTH 7 0
BBX 5 12 1 -3
BITMAP
F8
40
40
20
20
10
20
20
40
40
80
F8
ENDCHAR
STARTCHAR minus
ENCODING -1
SWIDTH 602 0
DWIDTH 7 0
BBX 6 2 1 3
BITMAP
FC
FC
ENDCHAR
STARTCHAR fraction
ENCODING -1
SWIDTH 602 0
DWIDTH 7 0
BBX 5 10 1 -1
BITMAP
08
18
10
10
20
20
40
40
80
80
ENDCHAR
STARTCHAR periodcentered
ENCODING -1
SWIDTH 602 0
DWIDTH 7 0
BBX 1 2 3 3
BITMAP
80
80
ENDCHAR
STARTCHAR radical
ENCODING -1
SWIDTH 602 0
DWIDTH 7 0
BBX 6 11 1 0
BITMAP
04
04
08
08
08
90
90
50
50
60
20
ENDCHAR
STARTCHAR infinity
ENCODING -1
SWIDTH 602 0
DWIDTH 7 0
BBX 7 4 0 2
BITMAP
6E
92
92
6E
ENDCHAR
STARTCHAR integral
ENCODING -1
SWIDTH 602 0
DWIDTH 7 0
BBX 5 12 1 -2
BITMAP
08
18
20
20
20
20
20
20
20
20
20
C0
ENDCHAR
STARTCHAR approxequal
ENCODING -1
SWIDTH 602 0
DWIDTH 7 0
BBX 6 4 1 2
BITMAP
E4
18
C4
3C
ENDCHAR
STARTCHAR notequal
ENCODING -1
SWIDTH 602 0
DWIDTH 7 0
BBX 6 7 1 0
BITMAP
08
FC
30
20
FC
80
80
ENDCHAR
STARTCHAR lessequal
ENCODING -1
SWIDTH 602 0
DWIDTH 7 0
BBX 7 7 0 0
BITMAP
02
1C
E0
70
0E
00
FE
ENDCHAR
STARTCHAR greaterequal
ENCODING -1
SWIDTH 602 0
DWIDTH 7 0
BBX 6 6 1 0
BITMAP
E0
1C
38
C0
00
FC
ENDCHAR
STARTCHAR lozenge
ENCODING -1
SWIDTH 602 0
DWIDTH 7 0
BBX 6 13 0 -3
BITMAP
10
30
28
28
44
44
84
44
44
28
28
10
10
ENDCHAR
STARTCHAR fi
ENCODING -1
SWIDTH 602 0
DWIDTH 7 0
BBX 6 10 0 0
BITMAP
3C
24
40
FC
44
44
44
44
44
44
ENDCHAR
STARTCHAR fl
ENCODING -1
SWIDTH 602 0
DWIDTH 7 0
BBX 6 10 0 0
BITMAP
3C
24
44
F4
44
44
44
44
44
44
ENDCHAR
STARTCHAR .notdef
ENCODING -1
SWIDTH 602 0
DWIDTH 7 0
BBX 7 12 0 -3
BITMAP
7E
82
82
82
82
82
82
82
82
82
82
7C
ENDCHAR
STARTCHAR c6459
ENCODING -1
SWIDTH 602 0
DWIDTH 7 0
BBX 3 1 2 8
BITMAP
A0
ENDCHAR
STARTCHAR c6460
ENCODING -1
SWIDTH 602 0
DWIDTH 7 0
BBX 2 2 3 8
BITMAP
40
80
ENDCHAR
STARTCHAR c6461
ENCODING -1
SWIDTH 602 0
DWIDTH 7 0
BBX 3 1 2 8
BITMAP
E0
ENDCHAR
STARTCHAR c6468
ENCODING -1
SWIDTH 602 0
DWIDTH 7 0
BBX 2 2 2 8
BITMAP
80
40
ENDCHAR
STARTCHAR c6470
ENCODING -1
SWIDTH 602 0
DWIDTH 7 0
BBX 3 2 2 8
BITMAP
40
A0
ENDCHAR
STARTCHAR c6472
ENCODING -1
SWIDTH 602 0
DWIDTH 7 0
BBX 3 2 2 8
BITMAP
80
60
ENDCHAR
STARTCHAR c6477
ENCODING -1
SWIDTH 602 0
DWIDTH 7 0
BBX 6 2 0 3
BITMAP
1C
E0
ENDCHAR
STARTCHAR c6478
ENCODING -1
SWIDTH 602 0
DWIDTH 7 0
BBX 3 5 2 4
BITMAP
60
A0
A0
E0
20
ENDCHAR
STARTCHAR c6475
ENCODING -1
SWIDTH 602 0
DWIDTH 7 0
BBX 3 2 2 8
BITMAP
80
E0
ENDCHAR
STARTCHAR c6476
ENCODING -1
SWIDTH 602 0
DWIDTH 7 0
BBX 1 1 3 8
BITMAP
80
ENDCHAR
ENDFONT
